<svg version="1.1" xmlns="http://www.w3.org/2000/svg" viewBox="0 0 623.94945 512.41636">
  <g transform="translate(115.61242, -162.417)" fill="none" stroke-width="36" stroke-linecap="round" stroke-linejoin="round">
    <path d="M272.16498,322.43502c0,0 -134.01787,-170.38843 -239.17434,-137.8993c0,0 -142.08001,49.82639 -31.93906,211.91332" stroke="#2b83c6"/>
    <path d="M44.68769,386.23886c0,0 -161.76292,73.96595 -140.34695,200.62626c0,0 24.32999,169.69215 254.41568,-19.45659" stroke="#2b83c6"/>
    <path d="M288.57363,247.24459l0.54096,220.07717" stroke="#26b1d3"/>
    <path d="M289.11459,467.32176c-10.5014,-57.88996 -6.80297,-66.07427 -62.01097,-110.06645c-67.79687,-33.05483 -98.06301,-14.60213 -112.75696,6.06359c-14.69395,20.66573 -10.23621,54.0816 3.87292,94.81326c0,0 30.20889,56.61413 96.85122,70.05844c0,0 71.95631,7.95846 74.04379,-60.86884z" stroke="#26b1d3"/>
    <path d="M340.05615,330.93564c0,0 -0.98971,153.87028 0.6028,156.29974c0,0 33.16515,121.6525 143.61402,15.00646" stroke="#26b1d3"/>
    <path d="M490.33703,334.91823l-2.51286,219.55773" stroke="#26b1d3"/>
  </g>
</svg>